<svg width="512" height="512" viewBox="0 0 512 512" fill="none" xmlns="http://www.w3.org/2000/svg">
<path d="M317.757 101.611C317.757 88.919 307.468 78.631 294.777 78.631H215.585C186.375 78.631 162.696 102.31 162.696 131.52V190.241H349.274V132.354C349.274 119.662 338.985 109.374 326.294 109.374H325.52C321.232 109.373 317.757 105.898 317.757 101.611Z" fill="#000DFF"/>
<path d="M326.293 109.373H325.519C321.233 109.373 317.758 105.898 317.758 101.612C317.758 88.92 307.469 78.632 294.778 78.632H286.095V190.242H349.274V132.355C349.273 119.661 338.985 109.373 326.293 109.373V109.373Z" fill="#000DFF" fill-opacity="0.7"/>
<path d="M436.52 408.243C436.52 384.169 420.922 362.869 397.971 355.603L330.127 334.123L256.016 331.518L181.874 334.123L114.03 355.603C91.079 362.87 75.481 384.169 75.481 408.243V426.777C120.682 474.54 184.635 504.375 255.558 504.499C265.676 504.483 275.659 503.897 285.479 502.769C344.722 495.767 397.58 467.925 436.521 426.777V408.243H436.52Z" fill="#000DFF"/>
<path d="M436.52 426.778V408.244C436.52 391.222 428.715 375.594 416.033 365.326C380.01 438.736 308.846 491.777 224.469 502.503C234.654 503.793 245.026 504.482 255.557 504.5C265.675 504.484 275.658 503.898 285.478 502.77C344.72 495.768 397.579 467.926 436.52 426.778Z" fill="#000DFF"/>
<path d="M304.648 333.228L256.015 314.3L207.336 333.229C195.672 388.542 238.928 478.579 252.225 504.45C253.335 504.467 254.442 504.497 255.556 504.499C256.964 504.497 258.364 504.457 259.767 504.433C273.075 478.54 316.31 388.529 304.648 333.228V333.228Z" fill="#E4F6FF"/>
<path d="M244.465 399.54L224.795 476.905L249.53 504.442C253.883 504.533 258.203 504.519 262.561 504.398L287.255 477.116L267.537 399.541H244.465V399.54Z" fill="#BB2D36"/>
<path d="M249.498 504.407C251.512 504.46 253.53 504.496 255.556 504.499C257.901 504.495 260.236 504.454 262.566 504.389L275.094 490.547C265.233 494.006 255.088 496.862 244.703 499.068L249.498 504.407Z" fill="#DD636E"/>
<path d="M297.521 326.068V282.322H214.448V326.068C214.448 349.008 255.985 374.066 255.985 374.066C255.985 374.066 297.521 349.008 297.521 326.068V326.068Z" fill="#FFDDCE"/>
<path d="M349.273 182.535H333.394C324.563 182.535 317.403 175.376 317.403 166.544V157.793C317.403 146.289 306.148 138.155 295.225 141.765C269.751 150.184 242.245 150.186 216.77 141.771L216.74 141.761C205.818 138.153 194.565 146.287 194.565 157.789V166.544C194.565 175.375 187.406 182.535 178.574 182.535H162.695V208.684C162.695 215.366 168.112 220.782 174.793 220.782C176.901 220.782 178.617 222.434 178.749 224.537C181.3 264.984 214.893 297.004 255.983 297.004C297.073 297.004 330.666 264.984 333.217 224.537C333.35 222.433 335.065 220.782 337.173 220.782C343.855 220.782 349.271 215.365 349.271 208.684V182.535H349.273Z" fill="#FFDDCE"/>
<path d="M333.394 182.535C324.563 182.535 317.403 175.376 317.403 166.544V157.793C317.403 146.289 306.148 138.155 295.225 141.765C292.208 142.762 289.161 143.632 286.093 144.393V230.758C285.668 258.857 270.271 283.314 247.532 296.531C250.309 296.833 253.126 297.003 255.983 297.003C297.073 297.003 330.666 264.983 333.217 224.536C333.35 222.432 335.065 220.781 337.173 220.781C343.855 220.781 349.271 215.364 349.271 208.683V182.534H333.394V182.535Z" fill="#FFCBBE"/>
<path d="M214.448 314.3L181.873 340.769L216.034 383.007C220.189 387.053 226.731 387.302 231.182 383.584L256.872 362.125L214.448 314.3Z" fill="#F4FBFF"/>
<path d="M297.536 314.3L256.871 362.124L281.017 382.769C285.441 386.551 292.012 386.361 296.209 382.329L330.126 340.769L297.536 314.3Z" fill="#F4FBFF"/>
<path d="M214.448 314.3L166.635 337.79C162.995 339.578 161.533 344.006 163.392 347.61L172.759 365.772C175.186 370.478 174.291 376.213 170.543 379.954C168.615 381.879 166.525 383.964 164.715 385.772C161.474 389.007 160.31 393.786 161.738 398.136C173.047 432.612 227.479 485.333 248.078 504.407C249.463 504.443 250.851 504.469 252.242 504.484C237.305 475.429 184.369 365.038 214.448 314.3V314.3Z" fill="#000DFF"/>
<path d="M341.441 379.954C337.693 376.213 336.798 370.478 339.225 365.772L348.592 347.61C350.451 344.006 348.989 339.578 345.349 337.79L297.536 314.3C327.606 365.025 274.708 475.368 259.754 504.46C261.159 504.436 262.562 504.401 263.962 504.354C284.604 485.236 338.947 432.58 350.246 398.135C351.673 393.785 350.509 389.005 347.269 385.771C345.458 383.964 343.369 381.879 341.441 379.954V379.954Z" fill="#000DFF"/>
<path d="M256.872 362.124L231.575 383.251L244.464 399.54H267.535L280.425 382.289L256.872 362.124Z" fill="#BB2D36"/>
<path d="M512 256C512 114.516 397.503 0 256 0C114.517 0 0 114.496 0 256C0 393.856 110.237 509.735 251.891 511.95C254.297 512.058 259.523 511.957 259.624 511.956C259.666 511.957 259.844 511.954 259.891 511.953C399.637 509.883 512 396.004 512 256V256ZM256 15C389.193 15 497 122.788 497 256C497 311.528 478.333 364.18 443.991 406.819C443.394 379.946 425.969 356.601 400.234 348.452L351.713 333.09C348.967 330.74 349.69 331.752 305.021 309.62V288.833C324.496 275.005 337.982 253.176 340.462 228.006C349.709 226.438 356.774 218.37 356.774 208.684C356.774 194.318 356.774 147.089 356.774 132.353C356.774 115.546 343.101 101.873 326.294 101.873H325.52C325.376 101.873 325.259 101.756 325.259 101.612C325.259 84.805 311.586 71.132 294.779 71.132H215.587C182.288 71.132 155.198 98.222 155.198 131.521C155.198 135.663 158.556 139.021 162.698 139.021C166.84 139.021 170.198 135.663 170.198 131.521C170.198 106.493 190.559 86.132 215.587 86.132H294.779C303.315 86.132 310.259 93.076 310.259 101.612C310.259 110.027 317.105 116.873 325.52 116.873H326.294C334.83 116.873 341.774 123.817 341.774 132.353V175.035H333.395C328.713 175.035 324.904 171.226 324.904 166.545V157.794C324.904 141.16 308.665 129.425 292.873 134.645C269.095 142.504 242.903 142.506 219.094 134.641C203.299 129.425 187.066 141.16 187.066 157.791V166.545C187.066 171.227 183.257 175.036 178.576 175.036H170.197V166.183C170.197 162.041 166.839 158.683 162.697 158.683C158.555 158.683 155.197 162.041 155.197 166.183V208.685C155.197 218.372 162.261 226.439 171.509 228.008C173.988 253.179 187.475 275.007 206.949 288.835V309.63C162.372 331.718 162.961 330.788 160.264 333.1L111.767 348.454C86.032 356.603 68.607 379.948 68.01 406.821C33.667 364.18 15 311.528 15 256C15 122.806 122.788 15 256 15V15ZM170.014 391.08L175.843 385.262C181.927 379.189 183.366 369.974 179.425 362.335L170.178 344.406L200.484 329.517C197.259 343.006 197.364 357.83 198.917 371.724C198.918 371.735 198.92 371.746 198.921 371.756C202.8 406.398 216.941 445.692 231.073 477.55C207.8 454.13 176.698 419.68 168.865 395.799C168.32 394.139 168.761 392.331 170.014 391.08V391.08ZM170.196 190.035H178.575C191.528 190.035 202.065 179.497 202.065 166.544V157.79C202.065 151.419 208.271 146.865 214.418 148.893C241.232 157.75 270.766 157.749 297.58 148.887C303.655 146.88 309.904 151.392 309.904 157.794V166.545C309.904 179.498 320.442 190.035 333.395 190.035H341.774V208.684C341.774 211.22 339.711 213.282 337.175 213.282C331.141 213.282 326.115 218.018 325.734 224.065C323.42 260.76 292.783 289.504 255.985 289.504C219.188 289.504 188.55 260.76 186.236 224.065C185.855 218.019 180.829 213.282 174.795 213.282C172.259 213.282 170.197 211.22 170.197 208.684V190.035H170.196ZM255.993 495.285C251.126 485.523 244.554 471.616 237.98 455.479L250.296 407.039H261.703L274.011 455.463C267.425 471.634 260.845 485.555 255.993 495.285V495.285ZM246.134 361.321C241.889 364.867 233.181 372.141 226.373 377.827C224.952 379.014 222.917 379.007 221.511 377.852L213.584 368.051C212.273 354.904 212.403 340.37 216.509 327.925L246.134 361.321ZM223.926 393.73C225.838 393.73 227.749 393.421 229.596 392.835L236.282 401.285L228.729 430.992C224.403 418.519 220.503 405.514 217.636 392.624C219.667 393.347 221.792 393.73 223.926 393.73ZM263.777 392.04H248.094L241.991 384.327L256.816 371.943L270.226 383.409L263.777 392.04ZM285.892 377.069L267.431 361.284L295.562 328.201C299.571 340.559 299.687 354.875 298.427 367.751L290.763 377.143C289.341 378.289 287.304 378.276 285.892 377.069V377.069ZM255.985 304.504C268.054 304.504 279.573 301.947 290.021 297.352V311.56L256.752 350.686L221.948 311.452V297.351C232.396 301.947 243.915 304.504 255.985 304.504V304.504ZM283.263 430.97L275.686 401.161L282.498 392.044C284.408 392.676 286.389 393.006 288.373 393.006C290.445 393.006 292.509 392.642 294.489 391.958C291.627 404.99 287.704 418.161 283.263 430.97V430.97ZM82.98 423.742V408.244C82.98 387.344 96.368 369.062 116.293 362.754L156.278 350.095C156.678 351.029 156.267 350.128 166.094 369.212C167.029 371.024 166.688 373.208 165.246 374.647L159.417 380.465C154.134 385.738 152.292 393.406 154.612 400.475C164.185 429.656 201.845 470.066 227.692 495.353C172.814 488.971 122.162 464.125 82.98 423.742V423.742ZM284.291 495.354C298.23 481.719 315.701 463.603 330.296 445.255C332.875 442.013 332.337 437.295 329.095 434.716C325.853 432.138 321.136 432.675 318.556 435.917C306.779 450.723 293.011 465.429 280.879 477.618C295.054 445.678 309.248 406.251 313.091 371.502C313.092 371.489 313.094 371.476 313.095 371.464C314.618 357.663 314.708 342.965 311.5 329.518L341.806 344.407L332.559 362.336C328.618 369.977 330.058 379.19 336.142 385.264L341.97 391.081C343.223 392.332 343.663 394.14 343.119 395.8C341.944 399.382 340.156 403.405 337.805 407.758C335.836 411.403 337.195 415.953 340.839 417.921C344.484 419.89 349.034 418.531 351.002 414.887C353.777 409.751 355.92 404.901 357.372 400.474C359.691 393.405 357.85 385.738 352.567 380.464L346.739 374.647C345.297 373.207 344.956 371.022 345.89 369.211C355.645 350.266 355.312 351.014 355.708 350.09L395.706 362.753C415.632 369.062 429.019 387.343 429.019 408.244V423.742C389.925 464.035 339.306 488.961 284.291 495.354V495.354Z" fill="black"/>
</svg>
